HIERARCHY
ROOT Hips
{
	OFFSET 0.000000 88.474243 0.000000
	CHANNELS 6 Xposition Yposition Zposition Zrotation Yrotation Xrotation 
	JOINT Hips_Spine
	{
		OFFSET 0.000000 0.000000 0.000000
		CHANNELS 3 Zrotation Yrotation Xrotation
		JOINT Spine
		{
			OFFSET 0.005100 8.711998 -0.691000
			CHANNELS 3 Zrotation Yrotation Xrotation
			JOINT Spine1
			{
				OFFSET -0.009200 8.660301 -1.275000
				CHANNELS 3 Zrotation Yrotation Xrotation
				JOINT Spine2
				{
					OFFSET 0.006300 9.852501 -1.857000
					CHANNELS 3 Zrotation Yrotation Xrotation
					JOINT Spine2_Neck
					{
						OFFSET 0.000000 0.000000 0.000000
						CHANNELS 3 Zrotation Yrotation Xrotation
						JOINT Neck
						{
							OFFSET 0.016300 11.420799 -0.263300
							CHANNELS 3 Zrotation Yrotation Xrotation
							End Site #name: Head
							{
								OFFSET -0.019200 9.262405 2.362500
							}
						}
					}
					JOINT Spine2_LeftShoulder
					{
						OFFSET 0.000000 0.000000 0.000000
						CHANNELS 3 Zrotation Yrotation Xrotation
						JOINT LeftShoulder
						{
							OFFSET 5.616900 6.732201 -0.345700
							CHANNELS 3 Zrotation Yrotation Xrotation
							JOINT LeftArm
							{
								OFFSET 10.664888 -0.183372 -2.440700
								CHANNELS 3 Zrotation Yrotation Xrotation
								JOINT LeftForeArm
								{
									OFFSET 27.459126 0.000000 0.000000
									CHANNELS 3 Zrotation Yrotation Xrotation
									End Site #name: LeftHand
									{
										OFFSET 21.306858 0.000000 0.000000
									}
								}
							}
						}
					}
					JOINT Spine2_RightShoulder
					{
						OFFSET 0.000000 0.000000 0.000000
						CHANNELS 3 Zrotation Yrotation Xrotation
						JOINT RightShoulder
						{
							OFFSET -5.580300 6.737503 -0.344400
							CHANNELS 3 Zrotation Yrotation Xrotation
							JOINT RightArm
							{
								OFFSET -10.679335 -0.188484 -2.383900
								CHANNELS 3 Zrotation Yrotation Xrotation
								JOINT RightForeArm
								{
									OFFSET -27.503529 0.000000 0.000000
									CHANNELS 3 Zrotation Yrotation Xrotation
									End Site #name: RightHand
									{
										OFFSET -21.306808 0.000000 0.000000
									}
								}
							}
						}
					}
				}
			}
		}
	}
	JOINT Hips_LeftUpLeg
	{
		OFFSET 0.000000 0.000000 0.000000
		CHANNELS 3 Zrotation Yrotation Xrotation
		JOINT LeftUpLeg
		{
			OFFSET 6.857700 -6.739601 0.312100
			CHANNELS 3 Zrotation Yrotation Xrotation
			JOINT LeftLeg
			{
				OFFSET -0.367590 -34.731552 -4.572400
				CHANNELS 3 Zrotation Yrotation Xrotation
				End Site #name: LeftFoot
				{
					OFFSET 0.367590 -34.656704 -6.067400
				}
			}
		}
	}
	JOINT Hips_RightUpLeg
	{
		OFFSET 0.000000 0.000000 0.000000
		CHANNELS 3 Zrotation Yrotation Xrotation
		JOINT RightUpLeg
		{
			OFFSET -6.876100 -6.733299 0.301000
			CHANNELS 3 Zrotation Yrotation Xrotation
			JOINT RightLeg
			{
				OFFSET 0.347353 -34.795158 -4.515900
				CHANNELS 3 Zrotation Yrotation Xrotation
				End Site #name: RightFoot
				{
					OFFSET -0.347353 -34.589367 -6.070300
				}
			}
		}
	}
}
MOTION
Frames: 19
Frame Time: 0.041667
0.145205 0.024237 0.023152 0.266762 10.922214 -7.421257 0.000000 -0.000000 0.000000 0.456994 -1.015495 3.220360 0.154216 -0.057151 1.629193 0.000000 0.000000 0.000000 0.372367 -0.476747 0.498081 2.900452 -0.088372 -3.236587 0.672324 -0.636515 0.457590 -14.731998 -0.578938 0.421822 -53.022581 -3.718862 32.922872 0.414739 -34.399262 1.882449 -0.044712 -0.156558 0.869295 20.468131 11.107488 4.489260 55.288124 -7.857971 -5.456462 2.335062 82.317105 3.156174 0.000000 0.000000 0.000000 -3.697532 11.350819 -7.991476 3.635158 6.948422 22.558981 0.000000 0.000000 0.000000 1.466286 -9.944785 -4.892796 -0.192568 6.899806 4.016692 
0.412377 -0.002857 -0.024566 1.086620 13.220127 -8.398184 0.000000 -0.000000 0.000000 -0.181263 -0.445421 0.509415 0.270421 0.059041 1.199696 0.000000 0.000000 0.000000 -0.165143 0.076905 0.402828 2.642658 -0.389352 -3.360804 0.276913 0.008387 0.104882 -17.224518 -0.281745 -0.128310 -52.725739 -5.469871 34.393107 -0.792288 -31.474202 1.491184 -0.495520 0.183314 0.652349 21.322522 9.648888 3.237033 56.853974 -2.058825 2.564836 0.968536 82.792557 1.745415 0.000000 0.000000 -0.000000 -5.383244 11.348200 -6.696979 2.757148 7.301584 21.961383 0.000000 -0.000000 0.000000 -1.433342 -11.127396 -3.512715 -0.464311 7.049530 4.538271 
0.598294 -0.015392 -0.099312 1.656749 13.793757 -8.424835 0.000000 0.000000 0.000000 -0.567837 0.248998 0.224569 0.106339 0.501237 0.656103 0.000000 0.000000 0.000000 -0.185312 0.283933 0.171817 2.735246 0.507663 -3.384573 -0.118083 0.545310 -0.175890 -20.189159 1.658904 -0.382079 -54.039959 -1.996673 28.305746 -0.901033 -29.862855 1.469740 -0.773757 0.552683 0.359040 21.812358 9.695819 3.407271 55.697237 -1.082901 6.503226 0.334561 75.594034 0.967118 0.000000 0.000000 -0.000000 -6.224953 11.050095 -6.774830 2.935314 7.901516 21.890101 0.000000 -0.000000 0.000000 -2.939303 -10.920995 -3.618954 -0.074109 5.240451 5.729403 
0.815448 -0.034712 -0.177498 1.660863 13.392816 -8.433774 0.000000 0.000000 0.000000 -1.215457 0.425048 0.568347 -0.033309 0.547103 0.589695 0.000000 0.000000 0.000000 -0.242649 0.333000 0.136934 2.735834 0.898527 -2.917162 -0.220992 0.711693 -0.286090 -21.066363 1.810329 -0.640082 -55.605236 -0.457571 26.606043 -0.933043 -27.966317 1.534895 -0.703829 0.672950 0.238269 22.179668 9.721994 3.555927 55.494456 3.003071 7.714904 0.448920 75.760370 1.092785 0.000000 0.000000 -0.000000 -6.539189 10.993931 -6.821263 2.986733 8.068627 21.560795 0.000000 -0.000000 0.000000 -3.615099 -10.753410 -4.519099 0.090008 3.795772 7.551221 
1.070319 -0.051619 -0.248854 1.468262 13.031222 -8.451508 0.000000 0.000000 0.000000 -1.922863 0.540732 0.635293 -0.283290 0.548730 0.570809 0.000000 0.000000 0.000000 -0.432424 0.317931 0.090753 2.718254 1.061130 -2.246539 -0.383551 0.709123 -0.401850 -21.862185 2.250011 -0.838472 -55.192819 -0.358297 27.745941 -1.010400 -26.590552 1.581526 -0.913349 0.747730 0.243807 22.783261 9.447541 3.556176 55.904820 5.580374 8.089081 0.704619 76.951791 1.331213 0.000000 0.000000 -0.000000 -6.613188 10.886770 -6.928824 2.971445 8.113781 21.612861 0.000000 0.000000 0.000000 -3.959715 -10.562384 -5.153109 0.334599 3.102171 8.909514 
1.345407 -0.068873 -0.315766 1.225437 12.781896 -8.511041 0.000000 0.000000 0.000000 -2.432532 0.516134 0.700753 -0.593904 0.493388 0.625292 0.000000 0.000000 0.000000 -0.672785 0.207541 0.151953 2.696053 1.068426 -1.578717 -0.563018 0.639611 -0.402978 -22.690266 2.722934 -0.969872 -54.180791 -1.135126 29.013054 -1.043388 -25.044923 1.655385 -1.206640 0.705660 0.289931 23.061509 9.187057 3.477149 56.554758 6.906677 7.792188 1.117218 79.684933 1.684583 0.000000 0.000000 -0.000000 -6.613394 10.839471 -7.047166 2.914220 8.006381 21.921287 0.000000 0.000000 0.000000 -4.071404 -10.523229 -5.406722 0.784944 3.590790 9.640866 
1.621629 -0.084537 -0.379771 1.002438 12.554826 -8.543694 0.000000 0.000000 0.000000 -2.843356 0.410209 0.953907 -0.834779 0.412975 0.735721 0.000000 0.000000 0.000000 -0.873531 0.083345 0.295135 2.644560 1.021368 -1.055474 -0.690177 0.554011 -0.263009 -23.514054 3.111430 -1.114712 -53.212843 -2.164527 30.114450 -1.032451 -23.402246 1.689149 -1.456769 0.644860 0.384421 23.118976 9.123522 3.431119 57.089320 7.574492 7.567579 1.372115 81.012727 1.892908 0.000000 0.000000 -0.000000 -6.635684 10.825341 -7.236768 2.883073 7.894350 22.326587 0.000000 0.000000 0.000000 -4.122843 -10.569784 -5.578060 1.313574 4.708895 10.145417 
1.879498 -0.096081 -0.439637 0.811475 12.324795 -8.520786 0.000000 0.000000 0.000000 -3.141777 0.327559 1.073573 -0.975635 0.359310 0.844842 0.000000 0.000000 0.000000 -1.039329 0.002958 0.434738 2.582188 0.961415 -0.775869 -0.769620 0.499872 -0.132112 -24.226848 3.356815 -1.247800 -52.473349 -3.002910 30.528233 -1.022517 -21.840302 1.660433 -1.630316 0.614026 0.487434 23.086319 9.183287 3.413489 57.493944 7.895301 7.191745 1.532428 81.120911 2.004609 0.000000 0.000000 -0.000000 -6.700767 10.816628 -7.482354 2.918049 7.839495 22.746437 0.000000 0.000000 0.000000 -4.189441 -10.578651 -5.784292 1.810333 5.746406 10.567465 
2.099540 -0.102905 -0.493190 0.657462 12.067481 -8.447036 0.000000 0.000000 0.000000 -3.335544 0.289395 1.130834 -1.061922 0.353379 0.911615 0.000000 0.000000 0.000000 -1.174121 -0.018518 0.533454 2.506841 0.907340 -0.642413 -0.826569 0.492079 -0.058652 -24.886878 3.602491 -1.311399 -51.916076 -3.657791 30.189719 -0.991059 -19.660035 1.601538 -1.765758 0.627574 0.552101 22.994694 9.330800 3.428989 57.874871 8.050825 6.916905 1.590756 80.344946 2.020224 0.000000 0.000000 -0.000000 -6.809414 10.825790 -7.757887 3.031798 7.853920 23.188618 0.000000 0.000000 0.000000 -4.292466 -10.537052 -6.030024 2.366744 6.818987 11.115340 
2.276513 -0.107286 -0.541882 0.592410 11.833784 -8.360372 0.000000 0.000000 0.000000 -3.497037 0.284894 1.167148 -1.134856 0.379423 0.927120 0.000000 0.000000 0.000000 -1.287662 0.003994 0.572974 2.429888 0.847726 -0.578757 -0.874643 0.521789 -0.029750 -25.480628 3.679694 -1.342476 -51.249596 -4.023772 29.504172 -0.964934 -17.910712 1.560633 -1.888425 0.671010 0.572759 22.911935 9.414138 3.424252 58.192060 8.216643 6.720016 1.604536 79.064971 2.002995 0.000000 0.000000 -0.000000 -6.950300 10.854788 -8.015297 3.199119 7.942307 23.661517 0.000000 0.000000 0.000000 -4.454791 -10.460495 -6.501968 2.975334 7.818409 12.204566 
2.404875 -0.111376 -0.588848 0.586220 11.614181 -8.329242 0.000000 0.000000 0.000000 -3.631928 0.295588 1.205551 -1.196955 0.423642 0.914525 0.000000 0.000000 0.000000 -1.381364 0.054588 0.576273 2.350876 0.783544 -0.558762 -0.920161 0.573300 -0.025449 -25.818218 3.702254 -1.357178 -50.840530 -4.161596 28.891713 -0.949410 -16.951104 1.527727 -1.993399 0.726990 0.575183 22.869551 9.433933 3.405749 58.430303 8.322593 6.694262 1.532107 77.212322 1.901788 0.000000 0.000000 -0.000000 -7.122644 10.904754 -8.216588 3.381146 8.073187 24.097456 0.000000 0.000000 0.000000 -4.733674 -10.359712 -7.137422 3.453797 8.564223 13.879633 
2.477613 -0.116208 -0.636631 0.634781 11.457409 -8.361666 0.000000 0.000000 0.000000 -3.757898 0.308642 1.269793 -1.245404 0.470298 0.882656 0.000000 0.000000 0.000000 -1.447034 0.110342 0.562968 2.275094 0.710382 -0.534146 -0.955434 0.627340 -0.027965 -25.984831 3.648747 -1.355018 -50.719350 -4.231153 28.619018 -0.937894 -16.540824 1.506657 -2.071696 0.786621 0.570503 22.877412 9.402061 3.377799 58.548853 8.373008 6.744773 1.432345 75.102003 1.790108 0.000000 0.000000 -0.000000 -7.311356 10.951433 -8.335631 3.564876 8.209017 24.454670 0.000000 0.000000 0.000000 -5.050018 -10.441073 -7.850349 3.981737 9.330125 15.888059 
2.487215 -0.122836 -0.686295 0.732067 11.385287 -8.430580 0.000000 0.000000 -0.000000 -3.875715 0.311954 1.344933 -1.275496 0.508913 0.840842 0.000000 0.000000 0.000000 -1.481668 0.156405 0.533716 2.215192 0.643665 -0.503643 -0.976210 0.670942 -0.030693 -26.005543 3.534506 -1.338431 -50.834568 -4.315558 28.718513 -0.929772 -16.445848 1.497300 -2.122013 0.834747 0.561781 22.900105 9.352568 3.347927 58.529230 8.367090 6.858101 1.333754 73.138391 1.693331 0.000000 0.000000 -0.000000 -7.507241 10.978556 -8.387186 3.726944 8.339729 24.732003 0.000000 0.000000 0.000000 -5.334606 -10.631698 -8.310946 4.242143 9.798164 17.162358 
2.436321 -0.130107 -0.739325 0.859025 11.378488 -8.524112 0.000000 0.000000 -0.000000 -3.961902 0.300433 1.424683 -1.281856 0.531103 0.788732 0.000000 0.000000 0.000000 -1.479647 0.181339 0.498958 2.174098 0.595753 -0.459425 -0.975212 0.692261 -0.034138 -25.926181 3.398623 -1.303431 -51.100541 -4.330246 29.130815 -0.922349 -16.489861 1.494590 -2.135212 0.858037 0.545664 22.913449 9.304070 3.319200 58.366379 8.340407 6.966993 1.258396 71.635974 1.623880 0.000000 0.000000 -0.000000 -7.681548 10.990116 -8.358739 3.864743 8.455949 24.896768 0.000000 0.000000 0.000000 -5.530379 -10.780105 -8.400820 4.189017 10.056416 17.482281 
2.328518 -0.134906 -0.797964 0.990185 11.395874 -8.596038 0.000000 0.000000 -0.000000 -3.969303 0.280990 1.496992 -1.259837 0.532713 0.719751 0.000000 0.000000 0.000000 -1.432022 0.177817 0.459943 2.148699 0.564212 -0.402165 -0.944895 0.686223 -0.037952 -25.787003 3.235812 -1.250139 -51.443611 -4.237541 29.723867 -0.919702 -16.598210 1.500847 -2.101747 0.848568 0.515027 22.908044 9.263777 3.293178 58.117744 8.310254 7.044420 1.217135 70.867597 1.589880 0.000000 0.000000 -0.000000 -7.787460 10.981834 -8.296950 3.981422 8.582976 24.964407 0.000000 0.000000 0.000000 -5.580483 -10.878122 -8.220434 3.902077 10.106047 17.098696 
2.169332 -0.137152 -0.863529 1.087238 11.457928 -8.653829 0.000000 0.000000 -0.000000 -3.878224 0.260989 1.544793 -1.199104 0.517150 0.637262 0.000000 0.000000 0.000000 -1.330508 0.145956 0.416908 2.127136 0.533579 -0.334540 -0.879457 0.651752 -0.036050 -25.602117 3.054299 -1.181616 -51.812629 -4.044113 30.470610 -0.917896 -16.811990 1.511426 -2.011469 0.806469 0.475287 22.886878 9.230116 3.269279 57.817930 8.255504 7.114170 1.208168 70.800578 1.587145 0.000000 0.000000 -0.000000 -7.804962 10.984054 -8.223760 4.092304 8.706352 24.941325 0.000000 0.000000 0.000000 -5.478530 -11.005818 -7.909085 3.706233 10.443827 16.378856 
1.963920 -0.137657 -0.938659 1.140245 11.573401 -8.699475 0.000000 0.000000 -0.000000 -3.691752 0.258707 1.591879 -1.075086 0.498601 0.556821 0.000000 0.000000 0.000000 -1.170994 0.089713 0.382089 2.085867 0.504926 -0.260370 -0.767530 0.592477 -0.014486 -25.378975 2.863242 -1.101772 -52.128081 -3.780758 31.239522 -0.920021 -17.077228 1.525628 -1.853075 0.746443 0.436708 22.859385 9.195332 3.247942 57.492783 8.153795 7.167652 1.232233 71.332838 1.621759 0.000000 0.000000 -0.000000 -7.722142 10.998679 -8.155331 4.189915 8.795267 24.845699 0.000000 0.000000 0.000000 -5.263691 -11.074389 -7.600729 3.467075 10.759985 15.720851 
1.716266 -0.136888 -1.023273 1.132277 11.713987 -8.735764 0.000000 0.000000 -0.000000 -3.178943 0.143463 1.515800 -0.901379 0.465681 0.489686 0.000000 0.000000 0.000000 -0.966324 0.013185 0.362806 2.029854 0.471816 -0.170832 -0.617887 0.510612 0.026638 -25.132964 2.682771 -1.017134 -52.449688 -3.447924 32.012071 -0.922750 -17.422129 1.542276 -1.607548 0.648400 0.415580 22.832040 9.153673 3.228775 57.153131 8.019543 7.238544 1.290891 72.291262 1.691382 0.000000 0.000000 -0.000000 -7.529262 11.034304 -8.114445 4.267389 8.822958 24.700350 0.000000 0.000000 0.000000 -4.923223 -11.098030 -7.293528 3.384543 11.334342 15.107867 
1.430042 -0.135655 -1.116456 1.048782 11.897118 -8.757307 0.000000 0.000000 -0.000000 -2.556397 0.015215 1.428144 -0.644876 0.399355 0.451703 0.000000 0.000000 0.000000 -0.733167 -0.078998 0.361702 1.972046 0.437607 -0.068400 -0.443520 0.412895 0.085373 -24.877343 2.547283 -0.923517 -52.788206 -3.069189 32.758601 -0.917523 -17.845353 1.578067 -1.320724 0.544071 0.406729 22.825444 9.107626 3.217124 56.789842 7.854126 7.317281 1.376087 73.516571 1.787241 0.000000 0.000000 -0.000000 -7.197404 11.076967 -8.109004 4.327916 8.798732 24.528510 0.000000 0.000000 0.000000 -4.460078 -11.172981 -6.993173 3.210713 11.657768 14.408634 
